<?xml version="1.0" encoding="utf-8"?>
<!-- Generator: Adobe Illustrator 25.4.1, SVG Export Plug-In . SVG Version: 6.00 Build 0)  -->
<svg version="1.1" id="Layer_1" xmlns="http://www.w3.org/2000/svg" xmlns:xlink="http://www.w3.org/1999/xlink" x="0px" y="0px"
	 viewBox="0 0 492.6 512" style="enable-background:new 0 0 492.6 512;" xml:space="preserve">
<style type="text/css">
	.st0{fill:#5a189a;}
	.st1{fill:#7b2cbf;}
	.st2{fill:#9d4edd;}
</style>
<rect x="0" y="50.1" class="st0" width="89.7" height="185"/>
<rect x="402.9" y="234.4" class="st0" width="89.7" height="185"/>
<g>
	<polygon class="st1" points="0.6,94.7 0,93.8 0,1 1.3,0.1 246.6,91.7 247.3,92.6 247.3,185.5 246,186.4 	"/>
	<polygon class="st1" points="246.3,185.5 1,93.8 1,1 246.3,92.6 	"/>
	<polygon class="st1" points="0.6,257.4 0,256.5 0,163.7 1.3,162.8 246.6,254.5 247.3,255.4 247.3,348.2 246,349.1 	"/>
	<polygon class="st1" points="246.3,348.2 1,256.5 1,163.7 246.3,255.4 	"/>
	<polygon class="st1" points="0.6,420.3 0,419.4 0,326.6 1.3,325.7 246.6,417.3 247.3,418.2 247.3,511.1 246,512 	"/>
	<polygon class="st1" points="246.3,511.1 1,419.4 1,326.6 246.3,418.2 	"/>
	<polygon class="st2" points="245.3,185.5 245.3,92.6 246,91.7 491.3,0.1 492.6,1 492.6,93.8 492,94.7 246.6,186.4 	"/>
	<polygon class="st2" points="246.3,92.6 491.6,1 491.6,93.8 246.3,185.5 	"/>
	<polygon class="st2" points="245.3,348.2 245.3,255.4 246,254.5 491.3,162.8 492.6,163.7 492.6,256.5 492,257.4 246.6,349.1 	"/>
	<polygon class="st2" points="246.3,255.4 491.6,163.7 491.6,256.5 246.3,348.2 	"/>
	<polygon class="st2" points="245.3,511.1 245.3,418.2 246,417.3 491.3,325.7 492.6,326.6 492.6,419.4 492,420.3 246.6,512 	"/>
	<polygon class="st2" points="246.3,418.2 491.6,326.6 491.6,419.4 246.3,511.1 	"/>
</g>
</svg>
