<?xml version="1.0" standalone="no"?>
<!DOCTYPE svg PUBLIC "-//W3C//DTD SVG 20010904//EN"
 "http://www.w3.org/TR/2001/REC-SVG-20010904/DTD/svg10.dtd">
<svg version="1.0" xmlns="http://www.w3.org/2000/svg"
 width="1024.000000pt" height="1024.000000pt" viewBox="0 0 1024.000000 1024.000000"
 preserveAspectRatio="xMidYMid meet">
<metadata>
Created by potrace 1.14, written by Peter Selinger 2001-2017
</metadata>
<g transform="translate(0.000000,1024.000000) scale(0.100000,-0.100000)"
fill="#000000" stroke="none">
<path d="M201 10226 c-8 -9 -10 -790 -9 -2572 l3 -2558 90 -34 c50 -19 115
-43 145 -54 30 -12 64 -24 75 -29 11 -4 94 -35 185 -69 91 -34 201 -75 245
-91 44 -17 105 -40 135 -51 30 -11 69 -25 85 -31 17 -7 33 -11 38 -9 4 1 7 -2
7 -7 0 -5 14 -11 31 -15 17 -3 45 -12 62 -20 18 -8 120 -46 227 -86 107 -39
204 -75 215 -80 26 -11 120 -46 170 -63 60 -21 287 -106 310 -116 27 -12 100
-40 155 -58 25 -9 56 -20 70 -26 14 -6 27 -11 30 -12 3 -1 12 -4 20 -8 51 -20
449 -167 453 -167 2 0 22 -8 43 -17 22 -9 44 -18 49 -19 6 -1 35 -12 65 -24
30 -12 60 -23 65 -24 6 -1 27 -10 49 -19 21 -9 41 -17 44 -17 5 0 226 -82 337
-125 33 -13 94 -36 135 -51 41 -14 86 -31 100 -37 14 -5 30 -11 35 -13 25 -8
102 -35 120 -44 11 -5 83 -32 160 -60 77 -28 149 -55 160 -60 11 -5 47 -18 80
-30 33 -11 69 -24 80 -29 11 -5 36 -14 55 -21 40 -14 64 -23 100 -38 14 -5 41
-15 60 -22 19 -7 44 -16 55 -21 11 -5 83 -31 160 -59 77 -28 155 -58 174 -66
38 -18 76 -15 136 12 22 10 42 18 45 19 3 1 13 5 23 8 37 15 52 20 62 23 6 1
46 17 90 33 44 17 87 32 95 34 8 1 18 6 21 10 3 4 19 10 34 13 16 3 34 9 40
13 13 11 88 36 98 33 4 -1 7 2 7 8 0 6 3 9 8 8 8 -3 97 28 124 43 10 5 22 9
27 9 5 0 22 5 38 12 15 6 33 12 39 13 6 2 27 10 45 18 19 8 50 20 69 27 38 13
48 17 130 50 30 12 59 23 65 25 5 1 23 7 38 13 15 7 40 15 55 18 15 4 29 10
32 13 3 3 32 15 65 26 33 10 67 22 75 27 24 11 291 110 305 112 7 1 20 8 29
15 9 7 16 11 16 8 0 -4 86 26 165 58 11 4 26 9 33 11 8 1 21 6 30 10 9 4 19 8
22 9 3 1 13 5 23 8 9 4 25 10 35 14 263 98 391 146 419 159 17 8 36 14 42 14
6 0 35 11 66 25 30 13 56 24 58 24 4 0 40 12 77 26 150 58 389 145 396 145 5
0 9 -298 9 -677 l0 -676 -43 -18 c-23 -10 -42 -16 -42 -12 0 3 -6 1 -12 -4 -7
-5 -33 -17 -58 -26 -25 -9 -58 -22 -75 -28 -16 -7 -32 -13 -35 -14 -3 -1 -20
-6 -38 -10 -17 -4 -32 -12 -32 -17 0 -5 -4 -7 -9 -3 -5 3 -12 1 -16 -5 -3 -5
-17 -10 -31 -10 -13 0 -24 -5 -24 -11 0 -5 -5 -7 -10 -4 -6 4 -16 2 -23 -3 -7
-6 -40 -20 -74 -31 -61 -20 -89 -31 -150 -57 -17 -8 -45 -17 -62 -20 -17 -4
-31 -10 -31 -13 0 -7 -89 -35 -102 -33 -5 1 -8 -3 -8 -10 0 -6 -3 -8 -7 -5 -3
4 -17 0 -30 -8 -13 -9 -23 -13 -23 -11 0 3 -20 -3 -45 -14 -25 -11 -49 -20
-53 -21 -4 -1 -16 -5 -27 -9 -11 -4 -209 -78 -440 -164 -231 -86 -427 -159
-435 -163 -8 -3 -20 -7 -25 -8 -6 -2 -57 -21 -115 -43 -111 -43 -153 -56 -159
-53 -2 2 -7 -1 -10 -6 -3 -5 -49 -24 -101 -43 -52 -18 -108 -39 -125 -45 -16
-7 -82 -32 -145 -55 -63 -22 -124 -45 -135 -50 -23 -11 -155 -60 -170 -64 -5
-2 -23 -8 -38 -15 -16 -6 -59 -21 -95 -34 -37 -12 -70 -26 -74 -31 -4 -6 -12
-6 -20 1 -7 6 -40 20 -73 32 -33 12 -67 24 -75 28 -8 3 -22 7 -30 9 -8 2 -23
7 -35 12 -11 6 -56 24 -100 40 -217 82 -301 112 -313 112 -6 0 -12 5 -12 11 0
5 -4 8 -8 5 -5 -3 -21 2 -36 10 -16 7 -32 14 -36 14 -4 0 -25 8 -46 17 -22 9
-45 18 -53 19 -7 1 -39 12 -70 24 -31 12 -65 25 -76 30 -11 4 -47 17 -80 30
-33 12 -69 25 -80 30 -26 11 -175 67 -245 92 -30 11 -64 23 -75 28 -60 23
-145 55 -270 101 -77 28 -162 60 -190 71 -27 11 -54 21 -60 22 -12 3 -42 15
-70 26 -43 17 -90 35 -100 36 -16 3 -415 154 -461 175 -23 10 -55 21 -70 25
-16 4 -35 11 -41 17 -7 5 -13 6 -13 2 0 -4 -6 -3 -13 2 -6 6 -30 16 -52 23
-22 7 -44 15 -50 19 -5 3 -17 6 -25 8 -8 1 -23 6 -35 11 -11 5 -38 16 -60 24
-22 9 -76 29 -120 46 -44 16 -125 46 -180 66 -55 20 -107 40 -115 43 -8 3 -17
7 -20 8 -3 1 -13 5 -22 9 -9 4 -22 9 -30 10 -7 2 -24 8 -38 14 -26 11 -60 24
-72 27 -5 2 -11 4 -15 5 -5 1 -11 2 -15 1 -5 0 -8 4 -8 11 0 6 -3 9 -6 5 -4
-3 -23 1 -43 9 -20 8 -79 31 -131 50 -52 20 -102 38 -110 41 -8 4 -17 7 -20 7
-3 1 -9 4 -15 7 -5 4 -34 14 -62 23 -29 10 -55 22 -59 27 -3 5 -9 7 -14 4 -4
-3 -25 3 -46 12 -22 9 -42 18 -46 19 -5 1 -10 3 -13 4 -3 1 -8 3 -12 5 -5 1
-21 7 -36 13 -16 7 -31 12 -34 12 -3 0 -19 6 -36 14 -69 30 -415 156 -430 156
-8 0 -17 4 -19 10 -1 5 -12 11 -23 13 -11 2 -30 9 -43 15 -12 7 -22 10 -22 7
0 -3 -13 1 -29 9 -16 9 -31 12 -35 9 -3 -4 -6 -2 -6 4 0 6 -9 9 -20 6 -20 -5
-20 -12 -18 -946 l3 -940 170 -64 c94 -34 177 -66 185 -69 19 -9 41 -15 58
-16 6 -1 12 -5 12 -10 0 -4 9 -8 19 -8 11 0 23 -5 26 -10 4 -6 10 -8 15 -5 5
3 11 1 15 -5 4 -6 11 -8 16 -5 5 4 9 2 9 -3 0 -5 6 -9 13 -9 11 0 148 -49 202
-73 24 -10 56 -22 70 -26 6 -1 71 -26 145 -54 74 -28 141 -52 148 -53 6 0 12
-4 12 -9 0 -5 6 -8 13 -7 6 1 19 -1 27 -4 36 -16 259 -99 295 -111 22 -8 72
-26 110 -40 90 -34 95 -36 99 -33 1 1 10 -4 19 -12 10 -7 17 -10 17 -5 0 5 4
5 8 -1 4 -5 45 -23 92 -39 47 -16 99 -34 115 -41 53 -23 70 -28 78 -27 4 1 7
-2 7 -6 0 -4 8 -8 18 -9 18 -1 191 -66 224 -84 10 -5 26 -9 36 -9 10 0 22 -4
27 -9 6 -5 51 -23 100 -40 50 -18 99 -36 110 -41 11 -5 47 -18 80 -30 33 -11
69 -24 80 -29 11 -5 36 -14 55 -21 38 -13 43 -15 140 -53 67 -27 227 -86 245
-91 10 -3 55 -20 85 -33 8 -3 18 -7 23 -8 4 -2 9 -4 12 -5 3 -1 8 -3 13 -5 11
-3 41 -14 97 -36 28 -10 53 -19 56 -19 4 0 23 -7 43 -15 20 -8 38 -15 41 -15
3 0 18 -6 33 -14 15 -7 70 -28 122 -47 52 -18 106 -39 119 -45 14 -7 28 -11
33 -8 4 3 8 0 8 -7 0 -7 3 -10 6 -6 4 3 19 0 35 -8 15 -8 36 -17 46 -18 10 -2
32 -10 48 -16 17 -7 62 -24 100 -38 39 -14 74 -29 80 -34 5 -5 16 -9 25 -9 8
0 51 -14 95 -31 164 -63 190 -74 200 -76 6 -1 100 -36 210 -78 110 -42 220
-83 245 -91 l45 -14 245 90 c135 50 254 95 265 100 49 22 481 180 493 180 6 0
12 4 12 8 0 5 6 9 13 10 17 1 38 7 67 19 14 6 95 36 180 68 85 31 169 63 185
70 17 7 59 23 95 35 36 13 79 28 95 35 38 16 67 27 80 31 20 4 261 95 292 110
17 8 45 17 62 20 17 4 31 10 31 14 0 3 6 7 13 7 6 1 37 11 67 23 30 12 60 22
65 23 6 2 15 5 20 8 6 4 35 14 65 24 30 10 61 22 68 28 6 5 12 6 12 3 0 -4 10
-1 23 6 12 6 27 13 32 14 6 1 71 25 145 54 74 28 140 52 145 54 6 2 21 7 35
13 80 32 140 52 140 45 0 -4 4 -1 9 6 4 7 18 14 29 15 12 1 22 5 22 10 0 4 4
6 9 2 5 -3 12 -1 16 5 3 5 15 10 26 10 10 0 19 5 19 12 0 6 3 9 6 5 6 -5 24 0
99 29 11 4 22 8 25 9 16 6 49 19 77 31 17 8 36 14 42 14 6 0 19 4 29 9 9 6 62
26 117 46 55 21 113 43 130 50 16 8 33 11 37 9 4 -3 8 0 8 5 0 6 3 10 8 10 4
-1 10 0 15 1 4 1 10 3 15 4 19 4 108 40 119 49 7 5 17 6 23 2 5 -3 10 -1 10 4
0 6 3 10 8 9 4 0 14 1 22 5 8 3 38 13 65 23 28 10 56 22 63 27 6 5 12 7 12 4
0 -3 17 1 38 10 45 19 87 35 87 33 0 0 33 13 73 29 39 16 72 28 72 25 0 -2 13
2 29 10 15 8 57 25 92 37 35 12 70 26 77 32 6 5 12 7 12 3 0 -4 14 0 30 9 16
9 30 13 30 10 0 -3 10 0 23 6 12 7 96 40 187 74 l165 62 0 2569 0 2569 -28 -2
c-24 -2 -268 -88 -362 -128 -16 -7 -61 -23 -100 -36 -38 -13 -73 -28 -77 -34
-5 -6 -8 -6 -8 0 0 5 -5 4 -12 -3 -7 -7 -22 -12 -35 -12 -13 0 -23 -4 -23 -8
0 -5 -6 -9 -12 -9 -7 0 -105 -35 -218 -77 -113 -43 -234 -88 -270 -101 -36
-13 -76 -28 -90 -33 -14 -5 -29 -11 -35 -12 -5 -1 -19 -7 -30 -13 -11 -6 -23
-12 -27 -13 -5 -1 -9 -2 -10 -4 -2 -1 -10 -3 -18 -5 -8 -2 -159 -58 -335 -125
-176 -66 -324 -122 -330 -123 -5 -2 -44 -16 -85 -31 -41 -16 -104 -40 -140
-53 -36 -13 -81 -31 -100 -38 -80 -31 -423 -156 -430 -157 -3 0 -14 -5 -25
-11 -11 -6 -22 -11 -25 -12 -8 0 -102 -35 -135 -50 -16 -7 -59 -23 -95 -35
-36 -11 -78 -27 -95 -34 -40 -18 -78 -30 -87 -28 -5 1 -8 -2 -8 -8 0 -6 -3 -9
-7 -8 -5 0 -17 -2 -28 -6 -40 -15 -50 -19 -60 -22 -5 -1 -53 -19 -105 -39 -52
-20 -138 -52 -190 -71 -52 -19 -104 -38 -115 -43 -31 -14 -58 -24 -78 -28 -10
-2 -28 -9 -40 -15 -12 -7 -25 -13 -29 -14 -5 -1 -9 -2 -10 -4 -2 -1 -10 -3
-18 -5 -8 -2 -28 -9 -45 -16 -16 -7 -33 -13 -37 -14 -5 -2 -11 -4 -15 -5 -5
-1 -11 -2 -15 -1 -5 0 -8 -3 -8 -7 0 -5 -6 -9 -12 -9 -13 0 -185 -63 -243 -88
-16 -7 -47 -18 -68 -25 -22 -7 -51 -18 -65 -26 -15 -8 -34 -14 -43 -14 -9 0
-19 -3 -23 -7 -4 -5 -12 -9 -17 -9 -5 -1 -11 -3 -14 -4 -3 -1 -8 -3 -12 -5 -5
-1 -15 -5 -23 -8 -19 -8 -133 -51 -140 -52 -3 -1 -18 -7 -35 -14 -16 -7 -32
-13 -35 -13 -3 0 -34 -12 -70 -25 -83 -32 -91 -33 -115 -17 -11 8 -26 14 -33
14 -8 0 -28 6 -45 14 -40 17 -100 40 -109 42 -5 1 -10 3 -13 4 -3 1 -8 3 -12
5 -5 1 -19 6 -33 12 -14 6 -56 22 -95 36 -38 14 -81 30 -95 35 -14 6 -59 23
-100 37 -41 15 -84 31 -95 35 -49 22 -239 90 -251 90 -8 0 -14 5 -14 11 0 6
-7 9 -15 5 -8 -3 -15 -1 -15 4 0 6 -3 9 -7 8 -5 0 -15 1 -23 5 -42 16 -236 89
-245 91 -14 4 -45 16 -80 31 -16 7 -41 16 -55 20 -14 3 -34 10 -45 14 -11 5
-31 13 -45 18 -14 6 -43 17 -65 26 -22 8 -74 28 -115 43 -41 16 -77 29 -80 30
-33 7 -60 18 -60 23 0 4 -6 8 -13 8 -11 0 -205 68 -262 93 -18 7 -51 20 -65
25 -3 1 -13 5 -22 9 -9 4 -22 9 -30 10 -14 3 -61 21 -93 36 -22 10 -67 23 -75
22 -3 0 -16 6 -30 13 -23 12 -58 27 -70 29 -3 1 -18 7 -35 13 -16 6 -82 31
-145 54 -63 23 -119 46 -124 50 -6 5 -18 9 -28 9 -10 0 -26 4 -36 10 -26 14
-235 90 -250 90 -6 0 -12 5 -12 12 0 6 -3 9 -6 5 -4 -3 -18 0 -33 7 l-26 14 0
670 c0 369 3 673 5 675 3 3 34 -6 70 -20 36 -14 99 -37 140 -53 41 -15 111
-41 155 -57 44 -17 89 -34 100 -38 11 -4 25 -9 30 -11 6 -2 71 -26 145 -54 74
-28 146 -55 160 -60 14 -4 42 -15 62 -24 21 -9 40 -16 43 -16 3 0 20 -6 38
-13 17 -8 50 -20 72 -27 22 -7 44 -15 50 -18 5 -3 43 -18 85 -33 90 -32 463
-171 540 -202 30 -12 57 -22 60 -22 3 0 30 -10 60 -22 30 -12 136 -51 235 -88
99 -36 188 -70 197 -75 10 -6 26 -10 36 -10 10 0 23 -5 29 -11 6 -6 17 -12 24
-13 8 -1 32 -10 53 -19 22 -10 41 -15 44 -12 3 3 10 1 16 -4 6 -5 56 -25 111
-46 55 -20 109 -40 120 -45 11 -5 108 -41 215 -80 107 -39 202 -75 211 -79 22
-13 57 -6 122 23 31 14 58 26 60 25 2 0 -1 -1 157 56 69 25 133 50 142 55 10
6 23 10 30 10 7 1 31 9 53 20 22 11 45 20 50 20 6 0 75 25 155 56 80 30 150
57 155 58 6 2 24 9 40 15 17 7 35 14 40 15 13 2 205 75 230 87 12 6 27 11 35
13 8 1 24 7 35 13 11 6 24 11 28 11 8 0 51 16 102 37 28 12 74 28 85 30 4 1
134 50 185 70 11 4 25 9 30 11 6 1 96 35 200 74 105 40 195 73 202 74 7 1 16
5 19 9 4 4 16 7 26 7 10 0 18 5 18 10 0 6 3 9 8 9 4 -1 10 0 15 1 4 1 10 3 15
5 4 1 16 5 27 9 11 4 31 12 45 17 14 5 39 14 55 20 17 7 35 13 40 15 20 5 231
86 260 99 16 7 33 11 37 9 4 -3 8 -1 8 4 0 5 6 9 13 9 10 1 152 53 217 80 8 3
20 7 25 8 6 2 40 14 75 28 77 30 441 167 455 171 6 2 23 8 38 14 16 7 30 12
32 12 2 0 16 5 32 12 15 6 31 12 36 13 4 2 8 3 10 5 1 1 11 3 22 5 10 2 28 9
40 14 22 12 74 33 90 37 6 1 48 17 95 34 180 69 210 79 210 72 0 -4 4 -1 9 6
4 7 17 15 27 17 10 2 20 4 22 5 1 2 6 3 11 4 5 0 13 4 17 9 4 4 13 7 19 7 7 0
30 8 51 17 22 9 41 17 44 18 23 5 87 30 98 38 6 5 12 6 12 2 0 -4 6 -3 13 2 6
5 41 20 77 32 36 13 74 27 85 31 76 31 172 65 183 64 6 -1 12 2 12 7 0 5 8 9
18 9 10 0 22 4 28 8 5 5 29 15 54 22 88 27 80 -75 80 971 0 879 -1 929 -18
938 -10 5 -24 6 -32 1 -8 -4 -67 -27 -130 -50 -63 -22 -124 -45 -135 -50 -11
-5 -54 -21 -95 -36 -41 -14 -88 -32 -105 -39 -16 -7 -50 -20 -75 -28 -25 -8
-106 -38 -180 -67 -74 -29 -141 -52 -147 -53 -7 0 -13 -4 -13 -9 0 -5 -4 -7
-8 -4 -5 3 -25 -3 -44 -14 -20 -10 -38 -16 -42 -13 -3 3 -11 1 -18 -4 -7 -5
-26 -15 -43 -21 -185 -68 -283 -104 -300 -112 -11 -5 -72 -27 -135 -50 -63
-23 -122 -44 -130 -47 -8 -4 -17 -7 -20 -8 -3 -1 -12 -5 -20 -8 -26 -11 -155
-59 -165 -61 -5 -2 -21 -8 -35 -13 -14 -6 -113 -43 -220 -83 -107 -39 -200
-76 -206 -81 -7 -5 -16 -9 -20 -8 -5 1 -25 -4 -44 -12 -19 -7 -38 -12 -42 -11
-5 1 -8 -3 -8 -9 0 -5 -4 -8 -8 -5 -5 3 -22 -2 -38 -10 -16 -9 -29 -15 -29
-14 0 1 -13 -3 -28 -9 -16 -6 -31 -11 -33 -11 -5 0 -117 -42 -159 -60 -28 -12
-322 -120 -370 -137 -22 -7 -49 -18 -60 -22 -11 -5 -54 -21 -95 -36 -41 -15
-84 -31 -95 -35 -11 -5 -83 -32 -160 -60 -77 -28 -147 -54 -155 -57 -8 -4 -17
-7 -20 -8 -3 -1 -21 -8 -40 -16 -19 -7 -38 -12 -42 -11 -5 1 -8 -3 -8 -10 0
-6 -3 -9 -6 -6 -3 4 -22 0 -42 -9 -20 -8 -43 -16 -51 -18 -9 -2 -44 -15 -78
-29 -35 -14 -69 -26 -78 -26 -8 0 -15 -4 -15 -8 0 -5 -6 -9 -12 -9 -7 0 -74
-24 -148 -53 -74 -29 -139 -53 -145 -55 -5 -1 -23 -8 -40 -14 -16 -7 -34 -14
-40 -15 -5 -2 -17 -6 -25 -9 -8 -3 -96 -36 -195 -72 -99 -37 -189 -70 -200
-75 -80 -33 -82 -33 -142 -11 -32 12 -67 26 -78 31 -11 5 -54 21 -95 36 -113
40 -221 80 -255 95 -16 6 -35 13 -41 14 -16 4 -285 105 -309 116 -12 6 -27 11
-35 13 -8 1 -25 8 -37 14 -13 7 -23 10 -23 6 0 -3 -7 -1 -15 6 -8 7 -15 9 -15
5 0 -4 -6 -3 -12 3 -13 10 -85 38 -183 70 -27 9 -53 20 -56 25 -3 5 -9 8 -13
7 -4 -1 -19 3 -34 8 -15 6 -90 34 -167 62 -155 57 -164 60 -218 84 -21 9 -43
16 -50 16 -7 0 -23 6 -37 13 -14 7 -45 19 -70 27 -25 7 -49 17 -55 20 -5 4
-39 17 -75 29 -36 12 -74 26 -85 31 -11 5 -83 32 -160 60 -77 28 -149 55 -160
60 -64 26 -129 50 -136 50 -5 0 -28 8 -52 18 -40 18 -100 40 -122 46 -5 1 -21
8 -35 14 -26 11 -317 121 -335 126 -5 2 -17 6 -25 9 -8 4 -71 27 -139 52 -68
25 -129 49 -135 52 -6 4 -17 8 -26 9 -14 1 -65 20 -325 121 -49 20 -97 37
-105 38 -8 2 -17 4 -20 5 -3 1 -8 2 -12 1 -5 0 -8 4 -8 9 0 5 -3 9 -7 8 -8 -3
-86 24 -128 43 -20 8 -174 65 -270 99 -27 10 -71 27 -98 39 -26 11 -48 20 -50
20 -3 0 -20 6 -122 43 -44 16 -102 38 -130 48 -27 10 -59 21 -70 26 -11 4 -23
6 -27 6 -5 -1 -8 3 -8 10 0 6 -3 8 -7 5 -3 -4 -12 -2 -20 4 -7 6 -13 9 -13 6
0 -4 -21 3 -47 14 -77 34 -101 39 -112 25z"/>
</g>
</svg>
